HIERARCHY
ROOT Hips
{
	OFFSET 0.00000 0.00000 0.00000
	CHANNELS 6 Xposition Yposition Zposition Zrotation Yrotation Xrotation 
	JOINT LHipJoint
	{
		OFFSET 0 0 0
		CHANNELS 3 Zrotation Yrotation Xrotation
		JOINT LeftHip
		{
			OFFSET 2.36090 -1.39315 1.24752
			CHANNELS 3 Zrotation Yrotation Xrotation
			JOINT LeftKnee
			{
				OFFSET 2.06810 -5.68207 0.00000
				CHANNELS 3 Zrotation Yrotation Xrotation
				JOINT LeftAnkle
				{
					OFFSET 2.46631 -6.77613 0.00000
					CHANNELS 3 Zrotation Yrotation Xrotation
					JOINT LeftToe
					{
						OFFSET 0.26031 -0.71520 1.99545
						CHANNELS 3 Zrotation Yrotation Xrotation
						End Site
						{
							OFFSET 0.00000 -0.00000 1.05957
						}
					}
				}
			}
		}
	}
	JOINT RHipJoint
	{
		OFFSET 0 0 0
		CHANNELS 3 Zrotation Yrotation Xrotation
		JOINT RightHip
		{
			OFFSET -2.25243 -1.39315 1.24752
			CHANNELS 3 Zrotation Yrotation Xrotation
			JOINT RightKnee
			{
				OFFSET -2.17343 -5.97145 0.00000
				CHANNELS 3 Zrotation Yrotation Xrotation
				JOINT RightAnkle
				{
					OFFSET -2.52372 -6.93386 0.00000
					CHANNELS 3 Zrotation Yrotation Xrotation
					JOINT RightToe
					{
						OFFSET -0.22538 -0.61923 2.11447
						CHANNELS 3 Zrotation Yrotation Xrotation
						End Site
						{
							OFFSET -0.00000 -0.00000 1.10506
						}
					}
				}
			}
		}
	}
	JOINT lowerback
	{
		OFFSET 0 0 0
		CHANNELS 3 Zrotation Yrotation Xrotation
		JOINT Chest
		{
			OFFSET 0.01594 2.13103 0.08007
			CHANNELS 3 Zrotation Yrotation Xrotation
			JOINT Chest2
			{
				OFFSET 0.01393 2.09723 0.18338
				CHANNELS 3 Zrotation Yrotation Xrotation
				JOINT lowerneck
				{
					OFFSET 0 0 0
					CHANNELS 3 Zrotation Yrotation Xrotation
					JOINT Neck
					{
						OFFSET 0.05351 1.38915 0.32494
						CHANNELS 3 Zrotation Yrotation Xrotation
						JOINT Head
						{
							OFFSET 0.00711 1.45992 -0.21666
							CHANNELS 3 Zrotation Yrotation Xrotation
							End Site
							{
								OFFSET -0.00433 1.47702 -0.11056
							}
						}
					}
				}
				JOINT LeftCollar
				{
					OFFSET 0 0 0
					CHANNELS 3 Zrotation Yrotation Xrotation
					JOINT LeftShoulder
					{
						OFFSET 2.87198 0.92249 0.11132
CHANNELS 3 Zrotation Xrotation Yrotation
						JOINT LeftElbow
						{
OFFSET 0 -5.527310 0.000000
CHANNELS 3 Zrotation Xrotation Yrotation
							JOINT LeftWrist
							{
OFFSET 0 -3.110590 0.000000
CHANNELS 3 Zrotation Xrotation Yrotation
								JOINT lhand
								{
									OFFSET 0 0 0
CHANNELS 3 Zrotation Xrotation Yrotation
									JOINT LFingers
									{
OFFSET 0 -0.419630 0.000000
CHANNELS 3 Zrotation Xrotation Yrotation
										End Site
										{
OFFSET 0 -0.338310 0.000000
										}
									}
								}
								JOINT LThumb
								{
OFFSET 0 0.000000 0.000000
CHANNELS 3 Zrotation Xrotation Yrotation
									End Site
									{
OFFSET 0 -0.343480 0.343480
									}
								}
							}
						}
					}
				}
				JOINT RightCollar
				{
					OFFSET 0 0 0
					CHANNELS 3 Zrotation Yrotation Xrotation
					JOINT RightShoulder
					{
						OFFSET -2.94710 0.68072 0.32187
CHANNELS 3 Zrotation Xrotation Yrotation
						JOINT RightElbow
						{
OFFSET 0 -5.253960 -0.000000
CHANNELS 3 Zrotation Xrotation Yrotation
							JOINT RightWrist
							{
OFFSET 0 -3.105670 0.000000
CHANNELS 3 Zrotation Xrotation Yrotation
								JOINT rhand
								{
									OFFSET 0 0 0
CHANNELS 3 Zrotation Xrotation Yrotation
									JOINT RFingers
									{
OFFSET 0 -0.498680 0.000000
CHANNELS 3 Zrotation Xrotation Yrotation
										End Site
										{
OFFSET 0 -0.402040 0.000000
										}
									}
								}
								JOINT RThumb
								{
OFFSET 0 0.000000 0.000000
CHANNELS 3 Zrotation Xrotation Yrotation
									End Site
									{
OFFSET 0 -0.408180 0.408180
									}
								}
							}
						}
					}
				}
			}
		}
	}
}
MOTION
Frames: 7
Frame Time: 0.008333333333333333
5.207356 15.732092 -26.472370 -8.843369 -72.723941 30.831788 0.000000 0.000000 0.000000 -23.411482 -21.601127 -38.131765 4.096199 12.287288 36.756016 0.543251 -4.813150 -13.118316 0.017856 0.860639 2.365409 0.000000 0.000000 0.000000 14.417091 16.805095 -44.467195 -16.152242 -19.641208 78.684778 -0.026219 -2.095882 3.024972 -1.294651 7.208832 -20.335787 -5.316374 1.122974 -12.528555 -6.937788 2.091763 -4.181104 -3.985697 0.905348 2.688020 5.421771 8.910251 -19.543220 -2.411114 11.065047 14.483001 -0.249237 5.306492 8.106234 0.000000 0.000000 0.000000 17.458109 3.646008 -18.975005 11.868521 -19.606910 2.058151 29.910640 -30.770252 2.729545 0.000000 0.000000 0.000000 -7.125000 0.000000 0.000000 2.531351 26.829789 1.117199 0.000000 0.000000 0.000000 -10.148350 22.214766 51.004220 -45.665144 -51.090047 -22.755258 -24.091656 -10.929646 16.371131 0.000000 0.000000 0.000000 7.125000 0.000000 0.000000 3.565795 47.785929 -0.245388
4.898576 15.786069 -26.481606 -11.476748 -72.012855 32.695364 0.000000 0.000000 0.000000 -22.858556 -19.889212 -36.465129 4.111569 12.307376 36.828155 0.627957 -6.319940 -14.156940 0.037161 1.243702 3.419645 0.000000 0.000000 0.000000 14.890405 19.327180 -45.160800 -16.112614 -19.633721 78.567060 0.009609 -3.522296 1.990460 -1.319929 7.276442 -20.536984 -5.968577 1.345450 -12.267324 -6.567524 2.468574 -3.965157 -3.172717 1.103008 2.738834 5.628429 9.013296 -19.294447 -2.348617 11.147883 14.394533 -0.260645 5.368213 8.045966 0.000000 0.000000 0.000000 16.805846 2.646670 -22.435673 12.978530 -21.254763 2.446104 28.969707 -31.320032 3.479298 0.000000 0.000000 0.000000 -7.125000 0.000000 0.000000 1.782760 26.004057 0.820424 0.000000 0.000000 0.000000 -9.937649 24.184828 50.857339 -44.388038 -50.464527 -21.765957 -24.402602 -10.670834 16.788055 0.000000 0.000000 0.000000 7.125000 0.000000 0.000000 3.351213 48.280517 -0.271323
4.608712 15.823644 -26.457476 -12.593157 -70.742276 33.337809 0.000000 0.000000 0.000000 -22.436258 -19.061226 -34.862775 4.091025 12.280503 36.731635 0.676468 -7.608554 -14.805826 0.028288 1.083080 2.977506 0.000000 0.000000 0.000000 14.814774 21.181615 -46.253718 -15.934808 -19.599043 78.037438 0.050449 -4.608008 0.788007 -1.260087 7.115810 -20.058895 -6.353789 1.335148 -12.006250 -6.165725 2.489945 -3.853394 -2.532490 1.124203 2.678776 5.914449 9.198520 -19.020906 -2.435902 11.357222 14.430332 -0.313135 5.477519 8.042722 0.000000 0.000000 0.000000 15.773810 1.905153 -25.261353 14.177360 -22.986104 2.898028 27.517295 -31.564980 4.106617 0.000000 0.000000 0.000000 -7.125000 0.000000 0.000000 0.662070 25.351794 0.313849 0.000000 0.000000 0.000000 -9.914593 26.056838 50.611011 -43.102018 -49.803063 -20.778916 -25.020767 -11.036955 17.385835 0.000000 0.000000 0.000000 7.125000 0.000000 0.000000 2.874241 49.020523 -0.284436
4.369273 15.827704 -26.363309 -11.531388 -68.333706 32.712797 0.000000 0.000000 0.000000 -22.093155 -20.428690 -33.851157 4.053267 12.230925 36.553879 0.677799 -8.202969 -14.904124 0.008772 0.589520 1.619943 0.000000 0.000000 0.000000 13.618181 21.475949 -48.896783 -15.725959 -19.556139 77.414080 0.071250 -4.883964 -0.534796 -1.177979 6.888191 -19.384648 -5.744720 0.942488 -12.075891 -5.957180 1.903209 -3.939657 -2.733502 0.839371 2.641331 6.386068 9.450266 -18.866534 -2.676517 11.636771 14.649685 -0.422955 5.610719 8.146643 0.000000 0.000000 0.000000 14.281981 1.387279 -27.116975 15.439239 -24.752327 3.408972 25.606675 -31.157326 4.692358 0.000000 0.000000 0.000000 -7.125000 0.000000 0.000000 -0.789547 24.779551 -0.387507 0.000000 0.000000 0.000000 -9.988518 27.748610 50.292563 -41.933933 -49.173957 -19.890753 -25.932866 -11.790747 18.287782 0.000000 0.000000 0.000000 7.125000 0.000000 0.000000 2.164261 50.145570 -0.273035
4.154068 15.813809 -26.236883 -9.936532 -65.454912 31.990236 0.000000 0.000000 0.000000 -21.739823 -22.704723 -33.172645 4.011747 12.176059 36.357716 0.662625 -8.487903 -14.797355 0.000468 0.066246 0.181924 0.000000 0.000000 0.000000 11.907326 21.084221 -52.063086 -15.379655 -19.479884 76.377411 0.076365 -4.911511 -1.986921 -1.151634 6.813716 -19.164659 -4.670489 0.433825 -12.362350 -5.815454 1.119510 -4.093699 -3.296802 0.452643 2.652662 6.909201 9.695223 -18.973579 -2.948865 11.888861 15.046691 -0.537980 5.724515 8.361394 0.000000 0.000000 0.000000 12.657073 0.996595 -28.709264 16.821128 -26.618570 4.008480 23.805368 -30.729304 5.433462 0.000000 0.000000 0.000000 -7.125000 0.000000 0.000000 -2.147819 24.045609 -1.088611 0.000000 0.000000 0.000000 -10.041331 29.204554 49.757018 -40.902478 -48.594865 -19.113682 -26.855486 -12.642717 19.333516 0.000000 0.000000 0.000000 7.125000 0.000000 0.000000 1.461471 51.442544 -0.230402
3.912727 15.815508 -26.126629 -9.264758 -63.073040 31.825390 0.000000 0.000000 0.000000 -21.330687 -24.114747 -32.148185 3.955174 12.100465 36.088364 0.667872 -8.936045 -14.933622 0.000843 -0.190876 -0.524449 0.000000 0.000000 0.000000 10.534602 21.383753 -54.160381 -14.740020 -19.322158 74.451637 0.086865 -5.437644 -3.587753 -1.167179 6.857916 -19.295163 -4.010345 0.101485 -12.584416 -5.462304 0.613505 -4.171777 -3.368963 0.206467 2.686099 7.252833 9.881273 -19.206387 -3.164605 12.093391 15.535316 -0.606603 5.808319 8.614143 0.000000 0.000000 0.000000 11.169623 0.761860 -30.755598 18.394136 -28.655399 4.738516 22.491897 -30.995107 6.226916 0.000000 0.000000 0.000000 -7.125000 0.000000 0.000000 -3.130043 23.247383 -1.643680 0.000000 0.000000 0.000000 -10.161247 30.454382 49.028790 -39.952377 -48.041043 -18.404020 -27.601265 -13.485125 20.288303 0.000000 0.000000 0.000000 7.125000 0.000000 0.000000 0.907753 52.621422 -0.169611
3.656022 15.829099 -26.027547 -9.106893 -61.111305 31.929813 0.000000 0.000000 0.000000 -20.896324 -24.936137 -30.874507 3.875880 11.993305 35.708287 0.672529 -9.527359 -15.102283 0.000348 -0.052720 -0.144878 0.000000 0.000000 0.000000 9.286407 22.264779 -55.465725 -13.847681 -19.065741 71.737637 0.102639 -6.324100 -5.279993 -1.120329 6.722988 -18.897501 -3.722531 -0.140698 -12.657221 -4.865076 0.249253 -4.303536 -2.952905 0.034531 2.577312 7.324212 10.018308 -19.190476 -3.354645 12.320329 15.966827 -0.636169 5.893689 8.789009 0.000000 0.000000 0.000000 9.719607 0.868522 -33.224800 20.178042 -30.852644 5.624136 21.628004 -31.786928 6.795938 0.000000 0.000000 0.000000 -7.125000 0.000000 0.000000 -3.770053 22.679187 -2.029398 0.000000 0.000000 0.000000 -10.637707 31.575347 48.416899 -39.002106 -47.466910 -17.700502 -27.993469 -14.328723 21.025769 0.000000 0.000000 0.000000 7.125000 0.000000 0.000000 0.667336 53.502561 -0.139528
